<?xml version="1.0" encoding="UTF-8"?>
<svg xmlns="http://www.w3.org/2000/svg" viewBox="0 0 512 512" width="512" height="512"><g id="Filled_outline" data-name="Filled outline"><path d="M24,88H488a0,0,0,0,1,0,0V408a0,0,0,0,1,0,0H56a32,32,0,0,1-32-32V88A0,0,0,0,1,24,88Z" style="fill:#86b63b"/><path d="M424.774,384.018A16,16,0,0,0,408,400a16,16,0,0,0-32,0,16,16,0,0,0-32,0V351.548c0-8.615-6.621-16.028-15.226-16.433A16,16,0,0,0,312,351.1V448l-35.5-28.4a16.439,16.439,0,0,0-10.269-3.6h-1.36A16.756,16.756,0,0,0,248.4,428.815a16.449,16.449,0,0,0,5.34,16.105L304,488H416a24,24,0,0,0,24-24V400.452C440,391.837,433.379,384.424,424.774,384.018Z" style="fill:#fdc8a2"/><path d="M56,24A32,32,0,0,0,24,56V376a32,32,0,0,1,32-32H72V24Z" style="fill:#c6dc3a"/><path d="M424,56H254.627A54.626,54.626,0,0,1,216,40h0a54.626,54.626,0,0,1,38.627-16H424a16,16,0,0,1,16,16h0A16,16,0,0,1,424,56Z" style="fill:#c6dc3a"/><path d="M496,88V408a8,8,0,0,1-8,8H464V400h16V96H80V344a8,8,0,0,1-8,8H56a24,24,0,0,0,0,48H232v16H56a40.045,40.045,0,0,1-40-40V88H32V344.019A39.792,39.792,0,0,1,56,336h8V32H56A24.028,24.028,0,0,0,32,56V72H16V56A40.045,40.045,0,0,1,56,16H72a8,8,0,0,1,8,8V80H488A8,8,0,0,1,496,88ZM448,400.452V464a32.036,32.036,0,0,1-32,32H304a8,8,0,0,1-5.206-1.926l-50.26-43.08a24.424,24.424,0,0,1-7.94-23.924A24.859,24.859,0,0,1,264.874,408h1.359a24.531,24.531,0,0,1,15.268,5.355l22.5,18V351.1a24.11,24.11,0,0,1,7.436-17.368,23.83,23.83,0,0,1,17.713-6.606A24.2,24.2,0,0,1,352,351.548v25.823a23.979,23.979,0,0,1,24,4.755,23.957,23.957,0,0,1,31.991-.008,23.778,23.778,0,0,1,17.158-6.091A24.2,24.2,0,0,1,448,400.452Zm-16,0a8.326,8.326,0,0,0-7.6-8.442h0A8,8,0,0,0,416,400a8,8,0,0,1-16,0,8,8,0,0,0-16,0,8,8,0,0,1-16,0,8,8,0,0,0-16,0,8,8,0,0,1-16,0V351.548a8.328,8.328,0,0,0-7.6-8.443,8.023,8.023,0,0,0-5.918,2.2A7.937,7.937,0,0,0,320,351.1V448a8,8,0,0,1-13,6.247l-35.5-28.4a8.464,8.464,0,0,0-5.272-1.85h-1.359a8.76,8.76,0,0,0-8.665,6.56,8.455,8.455,0,0,0,2.737,8.286L306.959,480H416a16.019,16.019,0,0,0,16-16ZM168,168a32,32,0,1,1-32-32A32.036,32.036,0,0,1,168,168Zm-16,0a16,16,0,1,0-16,16A16.019,16.019,0,0,0,152,168Zm144,0a32,32,0,1,1,32,32A32.036,32.036,0,0,1,296,168Zm16,0a16,16,0,1,0,16-16A16.019,16.019,0,0,0,312,168ZM189.657,285.657,208,267.314l18.343,18.343,11.314-11.314L219.314,256l18.343-18.343-11.314-11.314L208,244.686l-18.343-18.343-11.314,11.314L196.686,256l-18.343,18.343Zm216-88L424,179.314l18.343,18.343,11.314-11.314L435.314,168l18.343-18.343-11.314-11.314L424,156.686l-18.343-18.343-11.314,11.314L412.686,168l-18.343,18.343ZM168,336a32,32,0,1,1-32-32A32.036,32.036,0,0,1,168,336Zm-16,0a16,16,0,1,0-16,16A16.019,16.019,0,0,0,152,336Zm182.723-93.963,11.62,11.62,11.314-11.314-24-24a8,8,0,0,0-11.314,0l-24,24,11.314,11.314,8.289-8.289A112.183,112.183,0,0,1,208,336H184v16h24C272.457,352,325.93,304.105,334.723,242.037ZM210.343,138.343l-24,24a8,8,0,0,0,0,11.314l24,24,11.314-11.314L211.314,176H280V160H211.314l10.343-10.343ZM456,328a32,32,0,1,1-32-32A32.036,32.036,0,0,1,456,328Zm-16,0a16,16,0,1,0-16,16A16.019,16.019,0,0,0,440,328ZM254.627,32a46.3,46.3,0,0,0-26.14,8,46.3,46.3,0,0,0,26.14,8H400V32H360V16h64a24,24,0,0,1,0,48H254.627a62.219,62.219,0,0,1-44.284-18.343,8,8,0,0,1,0-11.314A62.219,62.219,0,0,1,254.627,16H344V32ZM416,48h8a8,8,0,0,0,0-16h-8Z"/></g></svg>
